<svg xmlns="http://www.w3.org/2000/svg" xmlns:xlink="http://www.w3.org/1999/xlink" width="600" height="400" viewBox="0 0 2400 1600">
<defs>
  <clipPath id="clip960">
    <rect x="0" y="0" width="2400" height="1600"></rect>
  </clipPath>
</defs>
<path clip-path="url(#clip960)" d="M0 1600 L2400 1600 L2400 8.88178e-14 L0 8.88178e-14  Z" fill="#ffffff" fill-rule="evenodd" fill-opacity="1"></path>
<defs>
  <clipPath id="clip961">
    <rect x="480" y="0" width="1681" height="1600"></rect>
  </clipPath>
</defs>
<path clip-path="url(#clip960)" d="M147.709 1486.45 L2352.76 1486.45 L2352.76 47.2441 L147.709 47.2441  Z" fill="#ffffff" fill-rule="evenodd" fill-opacity="1"></path>
<defs>
  <clipPath id="clip962">
    <rect x="147" y="47" width="2206" height="1440"></rect>
  </clipPath>
</defs>
<polyline clip-path="url(#clip962)" style="stroke:#000000; stroke-linecap:round; stroke-linejoin:round; stroke-width:2; stroke-opacity:0.1; fill:none" points="210.116,1486.45 210.116,47.2441 "></polyline>
<polyline clip-path="url(#clip962)" style="stroke:#000000; stroke-linecap:round; stroke-linejoin:round; stroke-width:2; stroke-opacity:0.1; fill:none" points="556.822,1486.45 556.822,47.2441 "></polyline>
<polyline clip-path="url(#clip962)" style="stroke:#000000; stroke-linecap:round; stroke-linejoin:round; stroke-width:2; stroke-opacity:0.1; fill:none" points="903.527,1486.45 903.527,47.2441 "></polyline>
<polyline clip-path="url(#clip962)" style="stroke:#000000; stroke-linecap:round; stroke-linejoin:round; stroke-width:2; stroke-opacity:0.1; fill:none" points="1250.23,1486.45 1250.23,47.2441 "></polyline>
<polyline clip-path="url(#clip962)" style="stroke:#000000; stroke-linecap:round; stroke-linejoin:round; stroke-width:2; stroke-opacity:0.1; fill:none" points="1596.94,1486.45 1596.94,47.2441 "></polyline>
<polyline clip-path="url(#clip962)" style="stroke:#000000; stroke-linecap:round; stroke-linejoin:round; stroke-width:2; stroke-opacity:0.1; fill:none" points="1943.64,1486.45 1943.64,47.2441 "></polyline>
<polyline clip-path="url(#clip962)" style="stroke:#000000; stroke-linecap:round; stroke-linejoin:round; stroke-width:2; stroke-opacity:0.1; fill:none" points="2290.35,1486.45 2290.35,47.2441 "></polyline>
<polyline clip-path="url(#clip962)" style="stroke:#000000; stroke-linecap:round; stroke-linejoin:round; stroke-width:2; stroke-opacity:0.1; fill:none" points="147.709,1287.68 2352.76,1287.68 "></polyline>
<polyline clip-path="url(#clip962)" style="stroke:#000000; stroke-linecap:round; stroke-linejoin:round; stroke-width:2; stroke-opacity:0.1; fill:none" points="147.709,1070.33 2352.76,1070.33 "></polyline>
<polyline clip-path="url(#clip962)" style="stroke:#000000; stroke-linecap:round; stroke-linejoin:round; stroke-width:2; stroke-opacity:0.1; fill:none" points="147.709,852.974 2352.76,852.974 "></polyline>
<polyline clip-path="url(#clip962)" style="stroke:#000000; stroke-linecap:round; stroke-linejoin:round; stroke-width:2; stroke-opacity:0.1; fill:none" points="147.709,635.622 2352.76,635.622 "></polyline>
<polyline clip-path="url(#clip962)" style="stroke:#000000; stroke-linecap:round; stroke-linejoin:round; stroke-width:2; stroke-opacity:0.1; fill:none" points="147.709,418.271 2352.76,418.271 "></polyline>
<polyline clip-path="url(#clip962)" style="stroke:#000000; stroke-linecap:round; stroke-linejoin:round; stroke-width:2; stroke-opacity:0.1; fill:none" points="147.709,200.919 2352.76,200.919 "></polyline>
<polyline clip-path="url(#clip960)" style="stroke:#000000; stroke-linecap:round; stroke-linejoin:round; stroke-width:4; stroke-opacity:1; fill:none" points="147.709,1486.45 2352.76,1486.45 "></polyline>
<polyline clip-path="url(#clip960)" style="stroke:#000000; stroke-linecap:round; stroke-linejoin:round; stroke-width:4; stroke-opacity:1; fill:none" points="210.116,1486.45 210.116,1467.55 "></polyline>
<polyline clip-path="url(#clip960)" style="stroke:#000000; stroke-linecap:round; stroke-linejoin:round; stroke-width:4; stroke-opacity:1; fill:none" points="556.822,1486.45 556.822,1467.55 "></polyline>
<polyline clip-path="url(#clip960)" style="stroke:#000000; stroke-linecap:round; stroke-linejoin:round; stroke-width:4; stroke-opacity:1; fill:none" points="903.527,1486.45 903.527,1467.55 "></polyline>
<polyline clip-path="url(#clip960)" style="stroke:#000000; stroke-linecap:round; stroke-linejoin:round; stroke-width:4; stroke-opacity:1; fill:none" points="1250.23,1486.45 1250.23,1467.55 "></polyline>
<polyline clip-path="url(#clip960)" style="stroke:#000000; stroke-linecap:round; stroke-linejoin:round; stroke-width:4; stroke-opacity:1; fill:none" points="1596.94,1486.45 1596.94,1467.55 "></polyline>
<polyline clip-path="url(#clip960)" style="stroke:#000000; stroke-linecap:round; stroke-linejoin:round; stroke-width:4; stroke-opacity:1; fill:none" points="1943.64,1486.45 1943.64,1467.55 "></polyline>
<polyline clip-path="url(#clip960)" style="stroke:#000000; stroke-linecap:round; stroke-linejoin:round; stroke-width:4; stroke-opacity:1; fill:none" points="2290.35,1486.45 2290.35,1467.55 "></polyline>
<path clip-path="url(#clip960)" d="M180.059 1532.02 L209.734 1532.02 L209.734 1535.95 L180.059 1535.95 L180.059 1532.02 Z" fill="#000000" fill-rule="nonzero" fill-opacity="1"></path><path clip-path="url(#clip960)" d="M223.855 1544.91 L240.174 1544.91 L240.174 1548.85 L218.23 1548.85 L218.23 1544.91 Q220.892 1542.16 225.475 1537.53 Q230.082 1532.88 231.262 1531.53 Q233.507 1529.01 234.387 1527.27 Q235.29 1525.51 235.29 1523.82 Q235.29 1521.07 233.345 1519.33 Q231.424 1517.6 228.322 1517.6 Q226.123 1517.6 223.67 1518.36 Q221.239 1519.13 218.461 1520.68 L218.461 1515.95 Q221.285 1514.82 223.739 1514.24 Q226.193 1513.66 228.23 1513.66 Q233.6 1513.66 236.794 1516.35 Q239.989 1519.03 239.989 1523.52 Q239.989 1525.65 239.179 1527.57 Q238.392 1529.47 236.285 1532.07 Q235.707 1532.74 232.605 1535.95 Q229.503 1539.15 223.855 1544.91 Z" fill="#000000" fill-rule="nonzero" fill-opacity="1"></path><path clip-path="url(#clip960)" d="M526.579 1532.02 L556.255 1532.02 L556.255 1535.95 L526.579 1535.95 L526.579 1532.02 Z" fill="#000000" fill-rule="nonzero" fill-opacity="1"></path><path clip-path="url(#clip960)" d="M567.157 1544.91 L574.796 1544.91 L574.796 1518.55 L566.486 1520.21 L566.486 1515.95 L574.75 1514.29 L579.426 1514.29 L579.426 1544.91 L587.065 1544.91 L587.065 1548.85 L567.157 1548.85 L567.157 1544.91 Z" fill="#000000" fill-rule="nonzero" fill-opacity="1"></path><path clip-path="url(#clip960)" d="M903.527 1517.37 Q899.916 1517.37 898.087 1520.93 Q896.282 1524.47 896.282 1531.6 Q896.282 1538.71 898.087 1542.27 Q899.916 1545.82 903.527 1545.82 Q907.161 1545.82 908.967 1542.27 Q910.796 1538.71 910.796 1531.6 Q910.796 1524.47 908.967 1520.93 Q907.161 1517.37 903.527 1517.37 M903.527 1513.66 Q909.337 1513.66 912.393 1518.27 Q915.472 1522.85 915.472 1531.6 Q915.472 1540.33 912.393 1544.94 Q909.337 1549.52 903.527 1549.52 Q897.717 1549.52 894.638 1544.94 Q891.583 1540.33 891.583 1531.6 Q891.583 1522.85 894.638 1518.27 Q897.717 1513.66 903.527 1513.66 Z" fill="#000000" fill-rule="nonzero" fill-opacity="1"></path><path clip-path="url(#clip960)" d="M1240.61 1544.91 L1248.25 1544.91 L1248.25 1518.55 L1239.94 1520.21 L1239.94 1515.95 L1248.21 1514.29 L1252.88 1514.29 L1252.88 1544.91 L1260.52 1544.91 L1260.52 1548.85 L1240.61 1548.85 L1240.61 1544.91 Z" fill="#000000" fill-rule="nonzero" fill-opacity="1"></path><path clip-path="url(#clip960)" d="M1591.59 1544.91 L1607.91 1544.91 L1607.91 1548.85 L1585.97 1548.85 L1585.97 1544.91 Q1588.63 1542.16 1593.21 1537.53 Q1597.82 1532.88 1599 1531.53 Q1601.24 1529.01 1602.12 1527.27 Q1603.03 1525.51 1603.03 1523.82 Q1603.03 1521.07 1601.08 1519.33 Q1599.16 1517.6 1596.06 1517.6 Q1593.86 1517.6 1591.41 1518.36 Q1588.98 1519.13 1586.2 1520.68 L1586.2 1515.95 Q1589.02 1514.82 1591.48 1514.24 Q1593.93 1513.66 1595.97 1513.66 Q1601.34 1513.66 1604.53 1516.35 Q1607.73 1519.03 1607.73 1523.52 Q1607.73 1525.65 1606.91 1527.57 Q1606.13 1529.47 1604.02 1532.07 Q1603.44 1532.74 1600.34 1535.95 Q1597.24 1539.15 1591.59 1544.91 Z" fill="#000000" fill-rule="nonzero" fill-opacity="1"></path><path clip-path="url(#clip960)" d="M1947.89 1530.21 Q1951.25 1530.93 1953.12 1533.2 Q1955.02 1535.47 1955.02 1538.8 Q1955.02 1543.92 1951.5 1546.72 Q1947.98 1549.52 1941.5 1549.52 Q1939.33 1549.52 1937.01 1549.08 Q1934.72 1548.66 1932.27 1547.81 L1932.27 1543.29 Q1934.21 1544.43 1936.53 1545.01 Q1938.84 1545.58 1941.36 1545.58 Q1945.76 1545.58 1948.05 1543.85 Q1950.37 1542.11 1950.37 1538.8 Q1950.37 1535.75 1948.22 1534.03 Q1946.09 1532.3 1942.27 1532.3 L1938.24 1532.3 L1938.24 1528.45 L1942.45 1528.45 Q1945.9 1528.45 1947.73 1527.09 Q1949.56 1525.7 1949.56 1523.11 Q1949.56 1520.45 1947.66 1519.03 Q1945.78 1517.6 1942.27 1517.6 Q1940.34 1517.6 1938.15 1518.01 Q1935.95 1518.43 1933.31 1519.31 L1933.31 1515.14 Q1935.97 1514.4 1938.28 1514.03 Q1940.62 1513.66 1942.68 1513.66 Q1948.01 1513.66 1951.11 1516.09 Q1954.21 1518.5 1954.21 1522.62 Q1954.21 1525.49 1952.57 1527.48 Q1950.92 1529.45 1947.89 1530.21 Z" fill="#000000" fill-rule="nonzero" fill-opacity="1"></path><path clip-path="url(#clip960)" d="M2293.36 1518.36 L2281.55 1536.81 L2293.36 1536.81 L2293.36 1518.36 M2292.13 1514.29 L2298.01 1514.29 L2298.01 1536.81 L2302.94 1536.81 L2302.94 1540.7 L2298.01 1540.7 L2298.01 1548.85 L2293.36 1548.85 L2293.36 1540.7 L2277.76 1540.7 L2277.76 1536.19 L2292.13 1514.29 Z" fill="#000000" fill-rule="nonzero" fill-opacity="1"></path><polyline clip-path="url(#clip960)" style="stroke:#000000; stroke-linecap:round; stroke-linejoin:round; stroke-width:4; stroke-opacity:1; fill:none" points="147.709,1486.45 147.709,47.2441 "></polyline>
<polyline clip-path="url(#clip960)" style="stroke:#000000; stroke-linecap:round; stroke-linejoin:round; stroke-width:4; stroke-opacity:1; fill:none" points="147.709,1287.68 166.607,1287.68 "></polyline>
<polyline clip-path="url(#clip960)" style="stroke:#000000; stroke-linecap:round; stroke-linejoin:round; stroke-width:4; stroke-opacity:1; fill:none" points="147.709,1070.33 166.607,1070.33 "></polyline>
<polyline clip-path="url(#clip960)" style="stroke:#000000; stroke-linecap:round; stroke-linejoin:round; stroke-width:4; stroke-opacity:1; fill:none" points="147.709,852.974 166.607,852.974 "></polyline>
<polyline clip-path="url(#clip960)" style="stroke:#000000; stroke-linecap:round; stroke-linejoin:round; stroke-width:4; stroke-opacity:1; fill:none" points="147.709,635.622 166.607,635.622 "></polyline>
<polyline clip-path="url(#clip960)" style="stroke:#000000; stroke-linecap:round; stroke-linejoin:round; stroke-width:4; stroke-opacity:1; fill:none" points="147.709,418.271 166.607,418.271 "></polyline>
<polyline clip-path="url(#clip960)" style="stroke:#000000; stroke-linecap:round; stroke-linejoin:round; stroke-width:4; stroke-opacity:1; fill:none" points="147.709,200.919 166.607,200.919 "></polyline>
<path clip-path="url(#clip960)" d="M50.9921 1288.13 L80.6679 1288.13 L80.6679 1292.06 L50.9921 1292.06 L50.9921 1288.13 Z" fill="#000000" fill-rule="nonzero" fill-opacity="1"></path><path clip-path="url(#clip960)" d="M90.8067 1270.4 L109.163 1270.4 L109.163 1274.33 L95.0891 1274.33 L95.0891 1282.81 Q96.1076 1282.46 97.1261 1282.3 Q98.1447 1282.11 99.1632 1282.11 Q104.95 1282.11 108.33 1285.28 Q111.709 1288.45 111.709 1293.87 Q111.709 1299.45 108.237 1302.55 Q104.765 1305.63 98.4456 1305.63 Q96.2697 1305.63 94.0012 1305.26 Q91.7558 1304.89 89.3484 1304.15 L89.3484 1299.45 Q91.4317 1300.58 93.6539 1301.14 Q95.8761 1301.69 98.353 1301.69 Q102.358 1301.69 104.696 1299.59 Q107.033 1297.48 107.033 1293.87 Q107.033 1290.26 104.696 1288.15 Q102.358 1286.05 98.353 1286.05 Q96.478 1286.05 94.603 1286.46 Q92.7512 1286.88 90.8067 1287.76 L90.8067 1270.4 Z" fill="#000000" fill-rule="nonzero" fill-opacity="1"></path><path clip-path="url(#clip960)" d="M99.765 1056.12 Q96.1539 1056.12 94.3252 1059.69 Q92.5197 1063.23 92.5197 1070.36 Q92.5197 1077.47 94.3252 1081.03 Q96.1539 1084.57 99.765 1084.57 Q103.399 1084.57 105.205 1081.03 Q107.033 1077.47 107.033 1070.36 Q107.033 1063.23 105.205 1059.69 Q103.399 1056.12 99.765 1056.12 M99.765 1052.42 Q105.575 1052.42 108.631 1057.03 Q111.709 1061.61 111.709 1070.36 Q111.709 1079.09 108.631 1083.69 Q105.575 1088.28 99.765 1088.28 Q93.9549 1088.28 90.8762 1083.69 Q87.8206 1079.09 87.8206 1070.36 Q87.8206 1061.61 90.8762 1057.03 Q93.9549 1052.42 99.765 1052.42 Z" fill="#000000" fill-rule="nonzero" fill-opacity="1"></path><path clip-path="url(#clip960)" d="M90.8067 835.694 L109.163 835.694 L109.163 839.629 L95.0891 839.629 L95.0891 848.102 Q96.1076 847.754 97.1261 847.592 Q98.1447 847.407 99.1632 847.407 Q104.95 847.407 108.33 850.578 Q111.709 853.75 111.709 859.166 Q111.709 864.745 108.237 867.847 Q104.765 870.926 98.4456 870.926 Q96.2697 870.926 94.0012 870.555 Q91.7558 870.185 89.3484 869.444 L89.3484 864.745 Q91.4317 865.879 93.6539 866.435 Q95.8761 866.99 98.353 866.99 Q102.358 866.99 104.696 864.884 Q107.033 862.777 107.033 859.166 Q107.033 855.555 104.696 853.449 Q102.358 851.342 98.353 851.342 Q96.478 851.342 94.603 851.759 Q92.7512 852.176 90.8067 853.055 L90.8067 835.694 Z" fill="#000000" fill-rule="nonzero" fill-opacity="1"></path><path clip-path="url(#clip960)" d="M60.4134 648.967 L68.0522 648.967 L68.0522 622.602 L59.7421 624.268 L59.7421 620.009 L68.0059 618.342 L72.6818 618.342 L72.6818 648.967 L80.3207 648.967 L80.3207 652.902 L60.4134 652.902 L60.4134 648.967 Z" fill="#000000" fill-rule="nonzero" fill-opacity="1"></path><path clip-path="url(#clip960)" d="M99.765 621.421 Q96.1539 621.421 94.3252 624.986 Q92.5197 628.528 92.5197 635.657 Q92.5197 642.764 94.3252 646.328 Q96.1539 649.87 99.765 649.87 Q103.399 649.87 105.205 646.328 Q107.033 642.764 107.033 635.657 Q107.033 628.528 105.205 624.986 Q103.399 621.421 99.765 621.421 M99.765 617.717 Q105.575 617.717 108.631 622.324 Q111.709 626.907 111.709 635.657 Q111.709 644.384 108.631 648.99 Q105.575 653.574 99.765 653.574 Q93.9549 653.574 90.8762 648.99 Q87.8206 644.384 87.8206 635.657 Q87.8206 626.907 90.8762 622.324 Q93.9549 617.717 99.765 617.717 Z" fill="#000000" fill-rule="nonzero" fill-opacity="1"></path><path clip-path="url(#clip960)" d="M61.4087 431.615 L69.0476 431.615 L69.0476 405.25 L60.7374 406.917 L60.7374 402.657 L69.0013 400.991 L73.6772 400.991 L73.6772 431.615 L81.316 431.615 L81.316 435.551 L61.4087 435.551 L61.4087 431.615 Z" fill="#000000" fill-rule="nonzero" fill-opacity="1"></path><path clip-path="url(#clip960)" d="M90.8067 400.991 L109.163 400.991 L109.163 404.926 L95.0891 404.926 L95.0891 413.398 Q96.1076 413.051 97.1261 412.889 Q98.1447 412.704 99.1632 412.704 Q104.95 412.704 108.33 415.875 Q111.709 419.046 111.709 424.463 Q111.709 430.041 108.237 433.143 Q104.765 436.222 98.4456 436.222 Q96.2697 436.222 94.0012 435.852 Q91.7558 435.481 89.3484 434.74 L89.3484 430.041 Q91.4317 431.176 93.6539 431.731 Q95.8761 432.287 98.353 432.287 Q102.358 432.287 104.696 430.18 Q107.033 428.074 107.033 424.463 Q107.033 420.852 104.696 418.745 Q102.358 416.639 98.353 416.639 Q96.478 416.639 94.603 417.055 Q92.7512 417.472 90.8067 418.352 L90.8067 400.991 Z" fill="#000000" fill-rule="nonzero" fill-opacity="1"></path><path clip-path="url(#clip960)" d="M63.6309 214.264 L79.9503 214.264 L79.9503 218.199 L58.006 218.199 L58.006 214.264 Q60.668 211.509 65.2513 206.879 Q69.8578 202.227 71.0383 200.884 Q73.2837 198.361 74.1633 196.625 Q75.0661 194.866 75.0661 193.176 Q75.0661 190.421 73.1216 188.685 Q71.2004 186.949 68.0985 186.949 Q65.8995 186.949 63.4458 187.713 Q61.0152 188.477 58.2375 190.028 L58.2375 185.305 Q61.0615 184.171 63.5152 183.593 Q65.9689 183.014 68.0059 183.014 Q73.3763 183.014 76.5707 185.699 Q79.7651 188.384 79.7651 192.875 Q79.7651 195.004 78.9549 196.926 Q78.1679 198.824 76.0614 201.416 Q75.4827 202.088 72.3809 205.305 Q69.2791 208.5 63.6309 214.264 Z" fill="#000000" fill-rule="nonzero" fill-opacity="1"></path><path clip-path="url(#clip960)" d="M99.765 186.717 Q96.1539 186.717 94.3252 190.282 Q92.5197 193.824 92.5197 200.954 Q92.5197 208.06 94.3252 211.625 Q96.1539 215.166 99.765 215.166 Q103.399 215.166 105.205 211.625 Q107.033 208.06 107.033 200.954 Q107.033 193.824 105.205 190.282 Q103.399 186.717 99.765 186.717 M99.765 183.014 Q105.575 183.014 108.631 187.62 Q111.709 192.204 111.709 200.954 Q111.709 209.68 108.631 214.287 Q105.575 218.87 99.765 218.87 Q93.9549 218.87 90.8762 214.287 Q87.8206 209.68 87.8206 200.954 Q87.8206 192.204 90.8762 187.62 Q93.9549 183.014 99.765 183.014 Z" fill="#000000" fill-rule="nonzero" fill-opacity="1"></path><polyline clip-path="url(#clip962)" style="stroke:#009af9; stroke-linecap:round; stroke-linejoin:round; stroke-width:4; stroke-opacity:1; fill:none" points="210.116,368.917 213.583,372.336 217.05,375.754 220.518,379.171 223.985,382.588 227.452,386.004 230.919,389.419 234.386,392.834 237.853,396.248 241.32,399.662 244.787,403.075 248.254,406.487 251.721,409.899 255.188,413.31 258.655,416.72 262.122,420.13 265.589,423.538 269.056,426.947 272.523,430.354 275.99,433.761 279.457,437.167 282.925,440.573 286.392,443.977 289.859,447.381 293.326,450.784 296.793,454.187 300.26,457.589 303.727,460.99 307.194,464.39 310.661,467.789 314.128,471.188 317.595,474.586 321.062,477.983 324.529,481.379 327.996,484.774 331.463,488.169 334.93,491.563 338.397,494.955 341.864,498.347 345.331,501.739 348.799,505.129 352.266,508.518 355.733,511.907 359.2,515.294 362.667,518.681 366.134,522.067 369.601,525.452 373.068,528.836 376.535,532.219 380.002,535.601 383.469,538.982 386.936,542.362 390.403,545.741 393.87,549.12 397.337,552.497 400.804,555.873 404.271,559.248 407.738,562.622 411.206,565.995 414.673,569.367 418.14,572.738 421.607,576.108 425.074,579.477 428.541,582.845 432.008,586.211 435.475,589.577 438.942,592.941 442.409,596.304 445.876,599.667 449.343,603.027 452.81,606.387 456.277,609.746 459.744,613.103 463.211,616.459 466.678,619.814 470.145,623.168 473.612,626.52 477.08,629.872 480.547,633.222 484.014,636.57 487.481,639.918 490.948,643.264 494.415,646.608 497.882,649.952 501.349,653.294 504.816,656.634 508.283,659.974 511.75,663.312 515.217,666.648 518.684,669.983 522.151,673.317 525.618,676.649 529.085,679.98 532.552,683.309 536.019,686.637 539.487,689.963 542.954,693.288 546.421,696.611 549.888,699.933 553.355,703.253 556.822,706.571 560.289,709.888 563.756,713.203 567.223,716.517 570.69,719.829 574.157,723.14 577.624,726.448 581.091,729.755 584.558,733.06 588.025,736.364 591.492,739.666 594.959,742.966 598.426,746.264 601.894,749.56 605.361,752.855 608.828,756.148 612.295,759.439 615.762,762.728 619.229,766.015 622.696,769.3 626.163,772.583 629.63,775.865 633.097,779.144 636.564,782.421 640.031,785.697 643.498,788.97 646.965,792.241 650.432,795.51 653.899,798.777 657.366,802.042 660.833,805.305 664.3,808.566 667.768,811.824 671.235,815.081 674.702,818.335 678.169,821.587 681.636,824.836 685.103,828.083 688.57,831.328 692.037,834.571 695.504,837.811 698.971,841.049 702.438,844.285 705.905,847.518 709.372,850.748 712.839,853.976 716.306,857.202 719.773,860.425 723.24,863.645 726.707,866.863 730.175,870.078 733.642,873.291 737.109,876.501 740.576,879.708 744.043,882.913 747.51,886.115 750.977,889.314 754.444,892.51 757.911,895.704 761.378,898.894 764.845,902.082 768.312,905.267 771.779,908.448 775.246,911.627 778.713,914.803 782.18,917.976 785.647,921.146 789.114,924.312 792.581,927.476 796.049,930.636 799.516,933.794 802.983,936.948 806.45,940.098 809.917,943.246 813.384,946.39 816.851,949.531 820.318,952.668 823.785,955.802 827.252,958.932 830.719,962.059 834.186,965.183 837.653,968.303 841.12,971.419 844.587,974.532 848.054,977.641 851.521,980.746 854.988,983.848 858.456,986.946 861.923,990.04 865.39,993.13 868.857,996.216 872.324,999.298 875.791,1002.38 879.258,1005.45 882.725,1008.52 886.192,1011.59 889.659,1014.65 893.126,1017.71 896.593,1020.76 900.06,1023.81 903.527,1026.86 906.994,1029.9 910.461,1032.93 913.928,1035.96 917.395,1038.99 920.862,1042.02 924.33,1045.03 927.797,1048.05 931.264,1051.06 934.731,1054.06 938.198,1057.06 941.665,1060.05 945.132,1063.04 948.599,1066.03 952.066,1069.01 955.533,1071.99 959,1074.96 962.467,1077.92 965.934,1080.88 969.401,1083.83 972.868,1086.78 976.335,1089.73 979.802,1092.67 983.269,1095.6 986.737,1098.53 990.204,1101.45 993.671,1104.37 997.138,1107.28 1000.6,1110.18 1004.07,1113.08 1007.54,1115.98 1011.01,1118.86 1014.47,1121.75 1017.94,1124.62 1021.41,1127.49 1024.87,1130.36 1028.34,1133.21 1031.81,1136.06 1035.28,1138.91 1038.74,1141.75 1042.21,1144.58 1045.68,1147.41 1049.14,1150.23 1052.61,1153.04 1056.08,1155.84 1059.54,1158.64 1063.01,1161.44 1066.48,1164.22 1069.95,1167 1073.41,1169.77 1076.88,1172.54 1080.35,1175.29 1083.81,1178.04 1087.28,1180.79 1090.75,1183.52 1094.22,1186.25 1097.68,1188.97 1101.15,1191.68 1104.62,1194.39 1108.08,1197.09 1111.55,1199.78 1115.02,1202.46 1118.48,1205.13 1121.95,1207.8 1125.42,1210.45 1128.89,1213.1 1132.35,1215.74 1135.82,1218.38 1139.29,1221 1142.75,1223.61 1146.22,1226.22 1149.69,1228.82 1153.16,1231.41 1156.62,1233.99 1160.09,1236.56 1163.56,1239.12 1167.02,1241.67 1170.49,1244.22 1173.96,1246.75 1177.42,1249.28 1180.89,1251.79 1184.36,1254.3 1187.83,1256.79 1191.29,1259.28 1194.76,1261.75 1198.23,1264.22 1201.69,1266.67 1205.16,1269.12 1208.63,1271.55 1212.1,1273.98 1215.56,1276.39 1219.03,1278.8 1222.5,1281.19 1225.96,1283.57 1229.43,1285.94 1232.9,1288.3 1236.36,1290.65 1239.83,1292.98 1243.3,1295.31 1246.77,1297.62 1250.23,1299.92 1253.7,1302.21 1257.17,1304.49 1260.63,1306.76 1264.1,1309.01 1267.57,1311.25 1271.03,1313.48 1274.5,1315.7 1277.97,1317.9 1281.44,1320.09 1284.9,1322.27 1288.37,1324.44 1291.84,1326.59 1295.3,1328.73 1298.77,1330.85 1302.24,1332.97 1305.71,1335.06 1309.17,1337.15 1312.64,1339.22 1316.11,1341.27 1319.57,1343.31 1323.04,1345.34 1326.51,1347.35 1329.97,1349.35 1333.44,1351.34 1336.91,1353.3 1340.38,1355.26 1343.84,1357.19 1347.31,1359.12 1350.78,1361.02 1354.24,1362.91 1357.71,1364.79 1361.18,1366.65 1364.65,1368.49 1368.11,1370.31 1371.58,1372.12 1375.05,1373.91 1378.51,1375.69 1381.98,1377.45 1385.45,1379.19 1388.91,1380.91 1392.38,1382.62 1395.85,1384.31 1399.32,1385.98 1402.78,1387.63 1406.25,1389.26 1409.72,1390.88 1413.18,1392.47 1416.65,1394.05 1420.12,1395.61 1423.59,1397.15 1427.05,1398.67 1430.52,1400.17 1433.99,1401.65 1437.45,1403.11 1440.92,1404.55 1444.39,1405.97 1447.85,1407.37 1451.32,1408.74 1454.79,1410.1 1458.26,1411.44 1461.72,1412.75 1465.19,1414.04 1468.66,1415.31 1472.12,1416.56 1475.59,1417.79 1479.06,1418.99 1482.53,1420.17 1485.99,1421.33 1489.46,1422.46 1492.93,1423.57 1496.39,1424.65 1499.86,1425.72 1503.33,1426.75 1506.79,1427.77 1510.26,1428.76 1513.73,1429.72 1517.2,1430.66 1520.66,1431.57 1524.13,1432.46 1527.6,1433.32 1531.06,1434.15 1534.53,1434.96 1538,1435.74 1541.47,1436.5 1544.93,1437.22 1548.4,1437.92 1551.87,1438.59 1555.33,1439.24 1558.8,1439.85 1562.27,1440.44 1565.73,1440.99 1569.2,1441.52 1572.67,1442.02 1576.14,1442.49 1579.6,1442.92 1583.07,1443.33 1586.54,1443.71 1590,1444.05 1593.47,1444.37 1596.94,1444.65 1600.41,1444.9 1603.87,1445.11 1607.34,1445.3 1610.81,1445.45 1614.27,1445.57 1617.74,1445.65 1621.21,1445.7 1624.67,1445.72 1628.14,1445.7 1631.61,1445.64 1635.08,1445.55 1638.54,1445.43 1642.01,1445.26 1645.48,1445.06 1648.94,1444.83 1652.41,1444.56 1655.88,1444.25 1659.35,1443.9 1662.81,1443.51 1666.28,1443.08 1669.75,1442.62 1673.21,1442.11 1676.68,1441.57 1680.15,1440.98 1683.61,1440.36 1687.08,1439.69 1690.55,1438.98 1694.02,1438.23 1697.48,1437.44 1700.95,1436.6 1704.42,1435.72 1707.88,1434.8 1711.35,1433.83 1714.82,1432.82 1718.28,1431.76 1721.75,1430.65 1725.22,1429.5 1728.69,1428.31 1732.15,1427.07 1735.62,1425.78 1739.09,1424.44 1742.55,1423.05 1746.02,1421.62 1749.49,1420.13 1752.96,1418.6 1756.42,1417.01 1759.89,1415.37 1763.36,1413.69 1766.82,1411.95 1770.29,1410.16 1773.76,1408.31 1777.22,1406.41 1780.69,1404.46 1784.16,1402.45 1787.63,1400.39 1791.09,1398.27 1794.56,1396.1 1798.03,1393.87 1801.49,1391.58 1804.96,1389.24 1808.43,1386.83 1811.9,1384.37 1815.36,1381.84 1818.83,1379.26 1822.3,1376.62 1825.76,1373.91 1829.23,1371.14 1832.7,1368.31 1836.16,1365.42 1839.63,1362.46 1843.1,1359.44 1846.57,1356.35 1850.03,1353.19 1853.5,1349.97 1856.97,1346.68 1860.43,1343.33 1863.9,1339.9 1867.37,1336.41 1870.84,1332.84 1874.3,1329.21 1877.77,1325.5 1881.24,1321.72 1884.7,1317.87 1888.17,1313.94 1891.64,1309.94 1895.1,1305.87 1898.57,1301.72 1902.04,1297.49 1905.51,1293.19 1908.97,1288.8 1912.44,1284.34 1915.91,1279.8 1919.37,1275.17 1922.84,1270.47 1926.31,1265.68 1929.78,1260.81 1933.24,1255.86 1936.71,1250.82 1940.18,1245.7 1943.64,1240.49 1947.11,1235.19 1950.58,1229.81 1954.04,1224.33 1957.51,1218.77 1960.98,1213.11 1964.45,1207.36 1967.91,1201.52 1971.38,1195.59 1974.85,1189.56 1978.31,1183.44 1981.78,1177.22 1985.25,1170.9 1988.72,1164.48 1992.18,1157.97 1995.65,1151.35 1999.12,1144.63 2002.58,1137.81 2006.05,1130.89 2009.52,1123.86 2012.98,1116.73 2016.45,1109.49 2019.92,1102.14 2023.39,1094.68 2026.85,1087.12 2030.32,1079.44 2033.79,1071.65 2037.25,1063.75 2040.72,1055.73 2044.19,1047.6 2047.66,1039.35 2051.12,1030.98 2054.59,1022.49 2058.06,1013.89 2061.52,1005.16 2064.99,996.308 2068.46,987.333 2071.92,978.233 2075.39,969.007 2078.86,959.653 2082.33,950.17 2085.79,940.556 2089.26,930.812 2092.73,920.934 2096.19,910.922 2099.66,900.775 2103.13,890.49 2106.6,880.067 2110.06,869.505 2113.53,858.802 2117,847.955 2120.46,836.965 2123.93,825.83 2127.4,814.548 2130.86,803.117 2134.33,791.537 2137.8,779.805 2141.27,767.92 2144.73,755.881 2148.2,743.686 2151.67,731.334 2155.13,718.822 2158.6,706.15 2162.07,693.316 2165.53,680.317 2169,667.153 2172.47,653.822 2175.94,640.321 2179.4,626.65 2182.87,612.807 2186.34,598.79 2189.8,584.597 2193.27,570.226 2196.74,555.676 2200.21,540.944 2203.67,526.03 2207.14,510.931 2210.61,495.645 2214.07,480.171 2217.54,464.506 2221.01,448.648 2224.47,432.597 2227.94,416.349 2231.41,399.903 2234.88,383.256 2238.34,366.408 2241.81,349.355 2245.28,332.096 2248.74,314.628 2252.21,296.95 2255.68,279.059 2259.15,260.953 2262.61,242.631 2266.08,224.089 2269.55,205.327 2273.01,186.34 2276.48,167.128 2279.95,147.688 2283.41,128.018 2286.88,108.114 2290.35,87.9763 "></polyline>
<polyline clip-path="url(#clip962)" style="stroke:#000000; stroke-linecap:round; stroke-linejoin:round; stroke-width:4; stroke-opacity:1; fill:none" points="-2057.34,1070.33 4557.8,1070.33 "></polyline>
<path clip-path="url(#clip960)" d="M221.211 1438.47 L494.146 1438.47 L494.146 1334.79 L221.211 1334.79  Z" fill="#ffffff" fill-rule="evenodd" fill-opacity="1"></path>
<polyline clip-path="url(#clip960)" style="stroke:#000000; stroke-linecap:round; stroke-linejoin:round; stroke-width:4; stroke-opacity:1; fill:none" points="221.211,1438.47 494.146,1438.47 494.146,1334.79 221.211,1334.79 221.211,1438.47 "></polyline>
<polyline clip-path="url(#clip960)" style="stroke:#009af9; stroke-linecap:round; stroke-linejoin:round; stroke-width:4; stroke-opacity:1; fill:none" points="245.711,1386.63 392.715,1386.63 "></polyline>
<path clip-path="url(#clip960)" d="M431.058 1406.32 Q429.252 1410.95 427.539 1412.36 Q425.826 1413.78 422.956 1413.78 L419.553 1413.78 L419.553 1410.21 L422.053 1410.21 Q423.812 1410.21 424.784 1409.38 Q425.757 1408.54 426.937 1405.44 L427.701 1403.5 L417.215 1377.99 L421.729 1377.99 L429.831 1398.27 L437.933 1377.99 L442.446 1377.99 L431.058 1406.32 Z" fill="#000000" fill-rule="nonzero" fill-opacity="1"></path><path clip-path="url(#clip960)" d="M449.738 1399.98 L457.377 1399.98 L457.377 1373.61 L449.067 1375.28 L449.067 1371.02 L457.331 1369.35 L462.007 1369.35 L462.007 1399.98 L469.645 1399.98 L469.645 1403.91 L449.738 1403.91 L449.738 1399.98 Z" fill="#000000" fill-rule="nonzero" fill-opacity="1"></path></svg>